<svg data-v-423bf9ae="" xmlns="http://www.w3.org/2000/svg" viewBox="0 0 641.4832604658359 60" class="font"><!----><!----><!----><g data-v-423bf9ae="" id="fd1b3361-d517-4dd4-8614-d8afdf5d17ce" fill="black" transform="matrix(13.547693371446154,0,0,13.547693371446154,-0.000011122810519736959,-72.62885529056585)"><path d="M3.60 9.26L3.60 9.26L3.60 9.26Q3.09 9.71 2.38 9.75L2.38 9.75L2.38 9.75Q1.69 9.78 1.07 9.53L1.07 9.53L1.07 9.52L1.05 9.52L1.05 9.52Q0.95 9.49 0.76 9.33L0.76 9.33L0.76 9.33Q0.57 9.17 0.51 9.08L0.51 9.08L0.51 9.08Q0.41 8.95 0.33 8.78L0.33 8.78L0.33 8.78Q0.25 8.61 0.17 8.45L0.17 8.45L0.17 8.45Q0.02 8.16 0.01 7.95L0.01 7.95L0.01 7.95Q0 7.85 0.00 7.71L0.00 7.71L0.00 7.71Q0.01 7.58 0.02 7.41L0.02 7.41L0.02 7.41Q0.08 6.66 0.49 6.02L0.49 6.02L0.49 6.02Q0.53 5.97 0.62 5.89L0.62 5.89L0.62 5.89Q0.72 5.81 0.87 5.73L0.87 5.73L0.87 5.73Q1.18 5.56 1.40 5.49L1.40 5.49L1.40 5.49Q1.54 5.44 1.72 5.42L1.72 5.42L1.72 5.42Q2.13 5.37 2.56 5.42L2.56 5.42L2.56 5.42Q2.99 5.48 3.36 5.69L3.36 5.69L3.36 5.69Q3.42 5.72 3.48 5.77L3.48 5.77L3.48 5.77Q3.55 5.82 3.64 5.89L3.64 5.89L3.64 5.89Q3.81 6.02 3.83 6.15L3.83 6.15L3.83 6.15Q3.83 6.21 3.79 6.27L3.79 6.27L3.79 6.27Q3.71 6.36 3.64 6.36L3.64 6.36L3.64 6.36Q3.56 6.36 3.47 6.30L3.47 6.30L3.47 6.30Q3.37 6.23 3.32 6.19L3.32 6.19L3.32 6.19Q3.20 6.12 3.13 6.07L3.13 6.07L3.13 6.07Q3.06 6.02 3.04 6.01L3.04 6.01L3.04 6.01Q2.69 5.82 2.19 5.82L2.19 5.82L2.19 5.82Q2.08 5.82 1.94 5.83L1.94 5.83L1.94 5.83Q1.80 5.84 1.65 5.87L1.65 5.87L1.63 5.87L1.62 5.88L1.62 5.88Q0.75 6.13 0.49 7.06L0.49 7.06L0.49 7.06Q0.40 7.40 0.45 7.70L0.45 7.70L0.45 7.70Q0.51 8.00 0.59 8.31L0.59 8.31L0.59 8.31Q0.72 8.79 1.02 9.00L1.02 9.00L1.02 9.00Q1.32 9.21 1.78 9.30L1.78 9.30L1.78 9.30L1.78 9.30Q1.91 9.32 2.01 9.32L2.01 9.32L2.01 9.32Q2.12 9.32 2.22 9.30L2.22 9.30L2.22 9.30Q2.32 9.28 2.43 9.26L2.43 9.26L2.43 9.26Q2.54 9.24 2.66 9.23L2.66 9.23L2.66 9.23Q3.14 9.17 3.35 8.88L3.35 8.88L3.35 8.87L3.35 8.87Q3.50 8.64 3.47 8.22L3.47 8.22L3.47 8.22Q3.47 8.00 3.32 7.87L3.32 7.87L3.32 7.87Q3.13 7.70 2.80 7.71L2.80 7.71L2.26 7.73L2.26 7.73Q2.17 7.74 2.10 7.74L2.10 7.74L2.10 7.74Q2.03 7.75 1.98 7.75L1.98 7.75L1.98 7.75Q1.72 7.71 1.75 7.51L1.75 7.51L1.75 7.51Q1.77 7.38 1.94 7.33L1.94 7.33L1.94 7.33Q2.25 7.31 2.55 7.33L2.55 7.33L2.55 7.33Q2.84 7.35 3.16 7.33L3.16 7.33L3.45 7.31L3.45 7.31Q3.65 7.29 3.75 7.38L3.75 7.38L3.75 7.38Q3.86 7.46 3.86 7.66L3.86 7.66L3.86 7.66Q3.88 7.87 3.88 7.98L3.88 7.98L3.88 7.98Q3.88 8.16 3.89 8.36L3.89 8.36L3.89 8.36Q3.90 8.57 3.86 8.74L3.86 8.74L3.86 8.74Q3.81 9.00 3.60 9.26ZM9.52 9.47L9.52 9.47L9.52 9.47Q9.52 9.65 9.38 9.69L9.38 9.69L9.38 9.69Q9.26 9.75 9.16 9.61L9.16 9.61L9.16 9.61Q9.11 9.54 9.08 9.49L9.08 9.49L9.08 9.49Q9.05 9.43 9.03 9.39L9.03 9.39L9.03 9.39Q8.93 9.18 8.86 9.03L8.86 9.03L8.86 9.03Q8.78 8.87 8.71 8.78L8.71 8.78L8.71 8.78Q8.54 8.55 8.35 8.49L8.35 8.49L8.35 8.49Q8.18 8.44 7.80 8.48L7.80 8.48L7.80 8.48Q7.58 8.50 7.39 8.51L7.39 8.51L7.39 8.51Q7.19 8.52 7.01 8.50L7.01 8.50L7.01 8.50Q6.62 8.48 6.43 8.76L6.43 8.76L6.41 8.78L6.41 8.79L6.41 8.79Q6.34 8.93 6.29 9.06L6.29 9.06L6.29 9.06Q6.25 9.19 6.19 9.32L6.19 9.32L6.04 9.54L6.04 9.54Q5.95 9.69 5.84 9.70L5.84 9.70L5.84 9.70Q5.80 9.72 5.71 9.65L5.71 9.65L5.71 9.65Q5.67 9.60 5.66 9.55L5.66 9.55L5.66 9.55Q5.65 9.49 5.66 9.43L5.66 9.43L5.66 9.43Q5.67 9.37 5.69 9.30L5.69 9.30L5.69 9.30Q5.71 9.24 5.74 9.19L5.74 9.19L5.90 8.85L5.90 8.85Q6.14 8.35 6.35 7.85L6.35 7.85L6.35 7.85Q6.56 7.34 6.79 6.83L6.79 6.83L6.79 6.83Q6.83 6.74 6.86 6.66L6.86 6.66L6.86 6.66Q6.89 6.58 6.92 6.51L6.92 6.51L6.92 6.51Q7 6.32 7.08 6.14L7.08 6.14L7.08 6.14Q7.15 5.95 7.25 5.76L7.25 5.76L7.35 5.61L7.35 5.61Q7.42 5.48 7.49 5.48L7.49 5.48L7.49 5.48Q7.56 5.46 7.67 5.59L7.67 5.59L7.67 5.59Q7.79 5.73 7.89 5.91L7.89 5.91L7.89 5.91Q8.00 6.10 8.07 6.26L8.07 6.26L8.07 6.26Q8.31 6.77 8.52 7.28L8.52 7.28L8.52 7.28Q8.73 7.79 8.97 8.28L8.97 8.28L8.97 8.28Q9.04 8.43 9.12 8.58L9.12 8.58L9.12 8.58Q9.19 8.74 9.27 8.88L9.27 8.88L9.27 8.88Q9.31 8.98 9.35 9.08L9.35 9.08L9.35 9.08Q9.40 9.17 9.44 9.27L9.44 9.27L9.44 9.27Q9.47 9.34 9.50 9.39L9.50 9.39L9.50 9.39Q9.52 9.44 9.52 9.47ZM8.17 7.56L8.17 7.56L8.17 7.56Q8.10 7.40 8.04 7.22L8.04 7.22L8.04 7.22Q7.97 7.05 7.88 6.88L7.88 6.88L7.88 6.88Q7.72 6.57 7.52 6.58L7.52 6.58L7.52 6.58Q7.44 6.58 7.39 6.62L7.39 6.62L7.39 6.62Q7.33 6.67 7.29 6.72L7.29 6.72L7.29 6.72Q7.25 6.78 7.21 6.85L7.21 6.85L7.21 6.85Q7.18 6.92 7.16 6.98L7.16 6.98L7.16 6.98Q7.08 7.18 7.01 7.40L7.01 7.40L7.01 7.40Q6.95 7.62 6.88 7.83L6.88 7.83L6.88 7.83Q6.84 7.98 6.90 8.05L6.90 8.05L6.90 8.05Q6.94 8.12 7.11 8.13L7.11 8.13L7.11 8.13Q7.26 8.14 7.38 8.15L7.38 8.15L7.38 8.15Q7.49 8.15 7.57 8.14L7.57 8.14L7.57 8.14Q7.72 8.14 7.96 8.10L7.96 8.10L7.96 8.10Q8.22 8.06 8.26 7.88L8.26 7.88L8.26 7.88Q8.29 7.77 8.24 7.69L8.24 7.69L8.24 7.69Q8.22 7.66 8.20 7.63L8.20 7.63L8.20 7.63Q8.18 7.59 8.17 7.56ZM13.71 5.46L13.71 5.46L13.71 5.46Q14 5.45 13.84 5.76L13.84 5.76L13.84 5.76Q13.81 5.82 13.75 5.91L13.75 5.91L13.75 5.91Q13.69 6.00 13.60 6.12L13.60 6.12L13.60 6.12Q13.40 6.38 13.29 6.60L13.29 6.60L13.29 6.60Q13.19 6.80 13.05 7.01L13.05 7.01L13.05 7.01Q12.92 7.21 12.76 7.42L12.76 7.42L12.76 7.43L12.76 7.43Q12.68 7.55 12.64 7.67L12.64 7.67L12.64 7.67Q12.61 7.78 12.59 7.88L12.59 7.88L12.59 7.88Q12.58 8.00 12.60 8.12L12.60 8.12L12.60 8.12Q12.61 8.24 12.61 8.35L12.61 8.35L12.61 8.35Q12.61 8.52 12.60 8.67L12.60 8.67L12.60 8.67Q12.59 8.83 12.61 8.99L12.61 8.99L12.61 8.99Q12.62 9.05 12.63 9.13L12.63 9.13L12.63 9.13Q12.63 9.21 12.64 9.32L12.64 9.32L12.64 9.32Q12.65 9.54 12.57 9.64L12.57 9.64L12.57 9.64Q12.52 9.69 12.42 9.70L12.42 9.70L12.42 9.70Q12.20 9.72 12.18 9.38L12.18 9.38L12.18 9.38Q12.17 9.07 12.20 8.75L12.20 8.75L12.20 8.75Q12.22 8.43 12.24 8.11L12.24 8.11L12.24 8.11Q12.26 7.85 12.15 7.68L12.15 7.68L12.15 7.68Q12.10 7.61 12.05 7.51L12.05 7.51L12.05 7.51Q12.00 7.42 11.93 7.31L11.93 7.31L11.93 7.31Q11.85 7.19 11.78 7.07L11.78 7.07L11.78 7.07Q11.71 6.95 11.63 6.83L11.63 6.83L11.63 6.83Q11.55 6.70 11.50 6.60L11.50 6.60L11.50 6.60Q11.44 6.50 11.41 6.43L11.41 6.43L11.41 6.43Q11.35 6.34 11.32 6.27L11.32 6.27L11.32 6.27Q11.29 6.20 11.26 6.17L11.26 6.17L11.26 6.17Q11.23 6.13 11.19 6.08L11.19 6.08L11.19 6.08Q11.15 6.02 11.09 5.95L11.09 5.95L11.09 5.95Q10.92 5.74 10.92 5.63L10.92 5.63L10.92 5.63Q10.91 5.57 10.95 5.50L10.95 5.50L10.95 5.50Q11.14 5.28 11.31 5.53L11.31 5.53L11.31 5.53Q11.46 5.74 11.57 5.96L11.57 5.96L11.57 5.96Q11.68 6.19 11.80 6.40L11.80 6.40L11.80 6.40Q11.89 6.56 11.97 6.66L11.97 6.66L11.97 6.66Q12.04 6.77 12.11 6.83L12.11 6.83L12.11 6.83Q12.27 7.01 12.46 6.97L12.46 6.97L12.46 6.97Q12.62 6.94 12.77 6.72L12.77 6.72L12.77 6.72Q12.83 6.64 12.89 6.55L12.89 6.55L12.89 6.55Q12.94 6.46 13.00 6.37L13.00 6.37L13.00 6.37Q13.06 6.30 13.10 6.22L13.10 6.22L13.10 6.22Q13.14 6.13 13.18 6.04L13.18 6.04L13.18 6.04Q13.21 5.95 13.25 5.87L13.25 5.87L13.25 5.87Q13.30 5.78 13.35 5.69L13.35 5.69L13.35 5.69Q13.50 5.48 13.71 5.46ZM21.52 9.70L21.52 9.70L21.52 9.70Q21.31 9.69 21.31 9.44L21.31 9.44L21.31 9.44Q21.30 9.24 21.28 9.03L21.28 9.03L21.28 9.03Q21.26 8.82 21.25 8.61L21.25 8.61L21.25 8.61Q21.25 8.40 20.99 8.35L20.99 8.35L20.99 8.35Q20.88 8.32 20.77 8.30L20.77 8.30L20.77 8.30Q20.67 8.29 20.59 8.29L20.59 8.29L20.59 8.29Q20.43 8.28 20.31 8.28L20.31 8.28L20.31 8.28Q20.19 8.29 20.11 8.29L20.11 8.29L19.66 8.33L19.66 8.33Q19.34 8.35 19.27 8.20L19.27 8.20L19.26 8.18L19.25 8.16L19.25 8.11L19.25 8.11Q19.25 8.09 19.27 8.04L19.27 8.04L19.27 8.04Q19.30 7.98 19.33 7.93L19.33 7.93L19.33 7.93Q19.36 7.88 19.39 7.83L19.39 7.83L19.39 7.83Q19.43 7.79 19.45 7.76L19.45 7.76L19.45 7.76Q19.66 7.44 19.85 7.20L19.85 7.20L19.85 7.20Q20.04 6.95 20.19 6.76L20.19 6.76L20.19 6.76Q20.33 6.60 20.43 6.38L20.43 6.38L20.43 6.38Q20.53 6.17 20.64 5.99L20.64 5.99L20.64 5.99Q20.71 5.89 20.76 5.80L20.76 5.80L20.76 5.80Q20.81 5.71 20.87 5.64L20.87 5.64L20.87 5.64Q20.94 5.56 21.02 5.51L21.02 5.51L21.02 5.51Q21.10 5.46 21.23 5.43L21.23 5.43L21.26 5.42L21.26 5.42Q21.74 5.40 21.72 5.80L21.72 5.80L21.72 5.80Q21.71 5.86 21.70 5.94L21.70 5.94L21.70 5.94Q21.70 6.02 21.69 6.13L21.69 6.13L21.69 6.13Q21.68 6.21 21.69 6.31L21.69 6.31L21.69 6.31Q21.69 6.40 21.70 6.50L21.70 6.50L21.70 6.50Q21.73 6.79 21.71 7.06L21.71 7.06L21.71 7.06Q21.69 7.33 21.71 7.60L21.71 7.60L21.71 7.60Q21.73 7.84 21.73 8.08L21.73 8.08L21.73 8.08Q21.73 8.20 21.72 8.30L21.72 8.30L21.72 8.30Q21.72 8.40 21.70 8.49L21.70 8.49L21.70 8.49Q21.68 8.67 21.70 8.87L21.70 8.87L21.70 8.87Q21.73 9.07 21.74 9.26L21.74 9.26L21.74 9.26Q21.74 9.32 21.74 9.43L21.74 9.43L21.74 9.43Q21.74 9.54 21.71 9.60L21.71 9.60L21.71 9.60Q21.68 9.66 21.60 9.69L21.60 9.69L21.60 9.69Q21.63 9.68 21.61 9.68L21.61 9.68L21.61 9.68Q21.59 9.69 21.52 9.70ZM20.76 6.56L20.76 6.56L20.76 6.56Q20.69 6.66 20.63 6.75L20.63 6.75L20.63 6.75Q20.56 6.84 20.50 6.93L20.50 6.93L20.50 6.93Q20.40 7.08 20.32 7.20L20.32 7.20L20.32 7.20Q20.24 7.32 20.18 7.43L20.18 7.43L20.18 7.43Q20.15 7.49 20.12 7.55L20.12 7.55L20.12 7.55Q20.09 7.61 20.07 7.67L20.07 7.67L20.07 7.67Q20.06 7.74 20.06 7.80L20.06 7.80L20.06 7.80Q20.07 7.87 20.13 7.92L20.13 7.92L20.13 7.92Q20.17 7.96 20.25 7.97L20.25 7.97L20.25 7.97Q20.77 8.01 21.08 7.97L21.08 7.97L21.08 7.97Q21.20 7.96 21.25 7.90L21.25 7.90L21.25 7.90Q21.29 7.85 21.29 7.65L21.29 7.65L21.29 7.65Q21.29 7.36 21.29 7.08L21.29 7.08L21.29 7.08Q21.29 6.79 21.29 6.50L21.29 6.50L21.29 6.50Q21.29 6.25 21.13 6.22L21.13 6.22L21.13 6.22Q21.01 6.19 20.93 6.30L20.93 6.30L20.88 6.37L20.88 6.37Q20.82 6.45 20.79 6.49L20.79 6.49L20.77 6.54L20.77 6.54Q20.77 6.54 20.77 6.55L20.77 6.55L20.77 6.55Q20.77 6.56 20.76 6.56ZM27.67 5.49L27.67 5.49L27.67 5.49Q27.68 5.52 27.68 5.58L27.68 5.58L27.68 5.58Q27.69 5.63 27.69 5.71L27.69 5.71L27.69 6.06L27.69 6.06Q27.69 6.25 27.68 6.40L27.68 6.40L27.68 6.40Q27.67 6.55 27.67 6.64L27.67 6.64L27.67 6.64Q27.66 6.97 27.69 7.28L27.69 7.28L27.69 7.28Q27.71 7.51 27.70 7.72L27.70 7.72L27.70 7.72Q27.68 7.94 27.68 8.16L27.68 8.16L27.68 8.16Q27.67 8.42 27.64 8.62L27.64 8.62L27.64 8.62Q27.61 8.83 27.55 9.07L27.55 9.07L27.54 9.10L27.54 9.11L27.54 9.11Q27.49 9.23 27.34 9.40L27.34 9.40L27.34 9.40Q26.50 10.12 25.65 9.51L25.65 9.51L25.65 9.51Q25.45 9.35 25.46 9.20L25.46 9.20L25.46 9.20Q25.46 9.15 25.58 9.07L25.58 9.07L25.58 9.07Q25.63 9.04 25.69 9.05L25.69 9.05L25.69 9.05Q25.74 9.06 25.80 9.10L25.80 9.10L25.80 9.10Q25.86 9.13 25.92 9.15L25.92 9.15L25.92 9.15Q26.10 9.26 26.30 9.28L26.30 9.28L26.30 9.28Q26.80 9.32 27.03 9.08L27.03 9.08L27.03 9.08Q27.18 8.93 27.22 8.70L27.22 8.70L27.22 8.70Q27.26 8.47 27.26 8.26L27.26 8.26L27.26 8.26Q27.27 8.05 27.27 7.84L27.27 7.84L27.27 7.84Q27.28 7.63 27.29 7.42L27.29 7.42L27.29 7.42Q27.30 7.30 27.29 7.14L27.29 7.14L27.29 7.14Q27.28 6.99 27.25 6.77L27.25 6.77L27.18 6.19L27.18 6.19Q27.16 6.08 27.17 5.80L27.17 5.80L27.17 5.80Q27.19 5.54 27.32 5.44L27.32 5.44L27.32 5.44Q27.59 5.26 27.67 5.49ZM29.54 9.29L29.54 9.29L29.54 9.29Q29.54 8.87 29.54 8.46L29.54 8.46L29.54 8.46Q29.54 8.04 29.54 7.62L29.54 7.62L29.54 7.38L29.54 7.38Q29.54 7.20 29.53 7.01L29.53 7.01L29.53 7.01Q29.52 6.82 29.54 6.64L29.54 6.64L29.54 6.64Q29.54 6.43 29.54 6.23L29.54 6.23L29.54 6.23Q29.54 6.03 29.55 5.82L29.55 5.82L29.55 5.82Q29.55 5.58 29.67 5.48L29.67 5.48L29.67 5.48Q29.76 5.41 29.98 5.41L29.98 5.41L29.98 5.41Q30.10 5.41 30.18 5.40L30.18 5.40L30.18 5.40Q30.27 5.40 30.33 5.40L30.33 5.40L30.33 5.40Q30.60 5.39 30.86 5.40L30.86 5.40L30.86 5.40Q31.13 5.41 31.40 5.41L31.40 5.41L31.40 5.41Q31.54 5.40 31.68 5.40L31.68 5.40L31.68 5.40Q31.83 5.39 31.96 5.41L31.96 5.41L32.31 5.43L32.31 5.43Q32.38 5.43 32.42 5.43L32.42 5.43L32.42 5.43Q32.46 5.43 32.50 5.45L32.50 5.45L32.50 5.45Q32.64 5.52 32.63 5.66L32.63 5.66L32.63 5.66Q32.63 5.72 32.59 5.76L32.59 5.76L32.59 5.76Q32.55 5.80 32.49 5.82L32.49 5.82L32.49 5.82Q32.44 5.84 32.39 5.84L32.39 5.84L32.39 5.84Q32.33 5.85 32.29 5.85L32.29 5.85L32.29 5.85Q31.88 5.85 31.47 5.83L31.47 5.83L31.47 5.83Q31.42 5.82 31.36 5.82L31.36 5.82L31.36 5.82Q31.30 5.82 31.23 5.82L31.23 5.82L30.83 5.82L30.83 5.82Q30.67 5.82 30.55 5.83L30.55 5.83L30.55 5.83Q30.43 5.83 30.34 5.83L30.34 5.83L30.34 5.83Q30.23 5.84 30.15 5.86L30.15 5.86L30.15 5.86Q30.08 5.89 30.04 5.94L30.04 5.94L30.04 5.94Q29.99 6.02 30.00 6.15L30.00 6.15L30.00 6.15Q30.00 6.20 30.00 6.24L30.00 6.24L30.00 6.24Q30.00 6.28 30.00 6.32L30.00 6.32L30.00 6.32Q29.98 6.40 29.98 6.49L29.98 6.49L29.98 6.49Q29.97 6.58 29.98 6.69L29.98 6.69L29.98 6.69Q29.98 6.88 30.13 7.01L30.13 7.01L30.13 7.01Q30.25 7.12 30.57 7.10L30.57 7.10L30.57 7.10Q30.71 7.10 30.85 7.08L30.85 7.08L30.85 7.08Q30.99 7.06 31.14 7.07L31.14 7.07L31.14 7.07Q31.20 7.07 31.30 7.07L31.30 7.07L31.30 7.07Q31.40 7.08 31.53 7.07L31.53 7.07L31.53 7.07Q31.81 7.06 31.90 7.16L31.90 7.16L31.90 7.16Q31.94 7.21 31.93 7.32L31.93 7.32L31.93 7.32Q31.91 7.44 31.74 7.47L31.74 7.47L31.74 7.47Q31.58 7.50 31.49 7.50L31.49 7.50L31.49 7.50Q31.36 7.51 31.24 7.50L31.24 7.50L31.24 7.50Q31.12 7.50 31.00 7.51L31.00 7.51L31.00 7.51Q30.85 7.52 30.69 7.51L30.69 7.51L30.69 7.51Q30.54 7.51 30.37 7.49L30.37 7.49L30.37 7.49Q30.34 7.49 30.32 7.49L30.32 7.49L30.32 7.49Q30.29 7.49 30.27 7.49L30.27 7.49L30.26 7.49L30.26 7.49Q30.19 7.47 30.11 7.52L30.11 7.52L30.11 7.52Q29.99 7.59 29.98 7.78L29.98 7.78L29.98 7.78Q29.96 7.96 29.98 8.09L29.98 8.09L29.98 8.09Q29.98 8.16 29.99 8.22L29.99 8.22L29.99 8.22Q29.99 8.29 29.98 8.33L29.98 8.33L29.98 8.33Q29.97 8.44 29.96 8.53L29.96 8.53L29.96 8.53Q29.95 8.63 29.93 8.74L29.93 8.74L29.93 8.74Q29.91 9.00 30.00 9.13L30.00 9.13L30.00 9.13Q30.12 9.28 30.41 9.28L30.41 9.28L30.41 9.28Q30.63 9.28 30.86 9.27L30.86 9.27L30.86 9.27Q31.10 9.26 31.33 9.25L31.33 9.25L31.33 9.25Q31.54 9.24 31.76 9.26L31.76 9.26L31.76 9.26Q31.99 9.28 32.20 9.28L32.20 9.28L32.20 9.28Q32.29 9.28 32.42 9.28L32.42 9.28L32.42 9.28Q32.56 9.28 32.63 9.32L32.63 9.32L32.63 9.32Q32.70 9.36 32.71 9.44L32.71 9.44L32.71 9.44Q32.79 9.69 32.50 9.70L32.50 9.70L32.50 9.70Q32.05 9.72 31.61 9.71L31.61 9.71L31.61 9.71Q31.18 9.71 30.74 9.71L30.74 9.71L30.74 9.71Q30.71 9.71 30.69 9.72L30.69 9.72L30.69 9.72Q30.67 9.72 30.65 9.72L30.65 9.72L30.65 9.72Q30.49 9.72 30.38 9.72L30.38 9.72L30.38 9.72Q30.26 9.72 30.19 9.71L30.19 9.71L30.19 9.71Q30.14 9.71 30.07 9.71L30.07 9.71L30.07 9.71Q30.01 9.71 29.93 9.70L29.93 9.70L29.93 9.70Q29.86 9.69 29.81 9.69L29.81 9.69L29.81 9.69Q29.77 9.68 29.75 9.67L29.75 9.67L29.75 9.67Q29.54 9.61 29.54 9.29ZM37.23 9.08L37.23 9.08L37.23 9.08Q37.11 9.23 37.01 9.34L37.01 9.34L37.01 9.34Q36.90 9.45 36.78 9.53L36.78 9.53L36.78 9.53Q36.67 9.60 36.53 9.66L36.53 9.66L36.53 9.66Q36.39 9.71 36.21 9.73L36.21 9.73L36.21 9.73Q36.12 9.74 36.03 9.74L36.03 9.74L36.03 9.74Q35.93 9.75 35.82 9.73L35.82 9.73L35.82 9.73Q35.67 9.72 35.53 9.72L35.53 9.72L35.53 9.72Q35.38 9.72 35.23 9.69L35.23 9.69L35.23 9.69Q34.90 9.61 34.69 9.46L34.69 9.46L34.69 9.46Q34.47 9.31 34.35 9.07L34.35 9.07L34.35 9.07Q34.20 8.74 34.52 8.73L34.52 8.73L34.52 8.73Q34.58 8.73 34.65 8.81L34.65 8.81L34.65 8.81Q34.72 8.89 34.76 8.93L34.76 8.93L34.76 8.93Q34.90 9.07 34.92 9.08L34.92 9.08L34.93 9.08L34.93 9.09L34.93 9.09Q35.27 9.32 35.82 9.32L35.82 9.32L35.83 9.32L35.83 9.32L35.83 9.32Q36.07 9.32 36.43 9.23L36.43 9.23L36.43 9.23Q36.78 9.14 36.90 8.87L36.90 8.87L36.90 8.87Q36.96 8.70 36.90 8.51L36.90 8.51L36.90 8.50L36.90 8.50Q36.73 8.14 36.24 8.02L36.24 8.02L35.40 7.80L35.40 7.80Q35.22 7.76 34.97 7.63L34.97 7.63L34.97 7.63Q34.84 7.56 34.74 7.51L34.74 7.51L34.74 7.51Q34.64 7.45 34.58 7.40L34.58 7.40L34.58 7.40Q34.30 7.19 34.25 6.99L34.25 6.99L34.25 6.99Q34.25 6.95 34.25 6.89L34.25 6.89L34.25 6.89Q34.25 6.83 34.25 6.74L34.25 6.74L34.25 6.74Q34.25 6.64 34.26 6.55L34.26 6.55L34.26 6.55Q34.28 6.46 34.29 6.36L34.29 6.36L34.29 6.36Q34.33 6.04 34.56 5.80L34.56 5.80L34.56 5.80Q34.66 5.69 34.81 5.62L34.81 5.62L34.81 5.62Q34.95 5.55 35.09 5.49L35.09 5.49L35.09 5.49Q35.28 5.40 35.49 5.40L35.49 5.40L35.49 5.40Q35.70 5.39 35.90 5.40L35.90 5.40L35.90 5.40Q36.57 5.42 36.95 5.87L36.95 5.87L36.95 5.87Q37.12 6.08 37.08 6.22L37.08 6.22L37.03 6.26L37.03 6.26Q36.92 6.32 36.77 6.19L36.77 6.19L36.77 6.19Q36.73 6.16 36.70 6.13L36.70 6.13L36.70 6.13Q36.66 6.09 36.63 6.06L36.63 6.06L36.63 6.06Q36.59 6.02 36.54 5.98L36.54 5.98L36.54 5.98Q36.48 5.95 36.42 5.91L36.42 5.91L36.40 5.90L36.38 5.90L36.38 5.90Q36.13 5.82 35.86 5.81L35.86 5.81L35.86 5.81Q35.60 5.80 35.32 5.86L35.32 5.86L35.32 5.86Q34.99 5.93 34.81 6.14L34.81 6.14L34.81 6.14Q34.63 6.34 34.63 6.67L34.63 6.67L34.63 6.69L34.64 6.70L34.64 6.70Q34.67 7.12 35.29 7.30L35.29 7.30L35.49 7.36L36.00 7.53L36.00 7.53Q36.11 7.57 36.23 7.62L36.23 7.62L36.23 7.62Q36.35 7.67 36.48 7.72L36.48 7.72L36.48 7.72Q36.67 7.81 36.83 7.90L36.83 7.90L36.83 7.90Q37.00 7.98 37.13 8.07L37.13 8.07L37.13 8.07Q37.23 8.13 37.28 8.22L37.28 8.22L37.28 8.22Q37.33 8.31 37.35 8.41L37.35 8.41L37.35 8.41Q37.37 8.51 37.36 8.62L37.36 8.62L37.36 8.62Q37.36 8.73 37.34 8.82L37.34 8.82L37.34 8.82Q37.32 8.89 37.29 8.96L37.29 8.96L37.29 8.96Q37.26 9.03 37.23 9.08ZM42.18 5.42L42.18 5.42L42.18 5.42Q42.38 5.41 42.38 5.63L42.38 5.63L42.38 5.63Q42.38 5.91 42.38 6.19L42.38 6.19L42.38 6.19Q42.38 6.46 42.34 6.75L42.34 6.75L42.34 6.75Q42.31 7.01 42.34 7.27L42.34 7.27L42.34 7.27Q42.37 7.53 42.37 7.79L42.37 7.79L42.37 7.84L42.34 8.31L42.34 8.31Q42.33 8.46 42.31 8.57L42.31 8.57L42.31 8.57Q42.29 8.69 42.27 8.76L42.27 8.76L42.26 8.79L42.25 8.84L42.25 8.85L42.25 8.85Q42.23 8.93 42.17 9.01L42.17 9.01L42.17 9.01Q42.12 9.10 42.05 9.18L42.05 9.18L42.05 9.18Q41.99 9.26 41.91 9.32L41.91 9.32L41.91 9.32Q41.84 9.39 41.77 9.45L41.77 9.45L41.77 9.45Q41.66 9.55 41.52 9.61L41.52 9.61L41.52 9.61Q41.38 9.67 41.23 9.70L41.23 9.70L41.23 9.70Q41.08 9.73 40.93 9.74L40.93 9.74L40.93 9.74Q40.78 9.75 40.63 9.75L40.63 9.75L40.63 9.75Q40.38 9.75 40.14 9.69L40.14 9.69L40.14 9.69Q39.90 9.63 39.68 9.50L39.68 9.50L39.68 9.50Q39.66 9.48 39.66 9.47L39.66 9.47L39.66 9.47Q39.64 9.47 39.63 9.45L39.63 9.45L39.63 9.45Q39.61 9.44 39.60 9.43L39.60 9.43L39.60 9.43Q39.58 9.41 39.57 9.40L39.57 9.40L39.57 9.40Q39.55 9.39 39.54 9.37L39.54 9.37L39.54 9.37Q39.20 9.01 39.10 8.47L39.10 8.47L39.10 8.47Q39.06 8.20 39.05 7.95L39.05 7.95L39.05 7.95Q39.03 7.69 39.05 7.44L39.05 7.44L39.05 7.44Q39.05 7.38 39.06 7.32L39.06 7.32L39.06 7.32Q39.07 7.27 39.07 7.21L39.07 7.21L39.07 7.21Q39.08 7.12 39.08 7.05L39.08 7.05L39.08 7.05Q39.07 6.97 39.07 6.90L39.07 6.90L39.07 6.90Q39.03 6.36 39.05 5.63L39.05 5.63L39.05 5.63Q39.05 5.48 39.22 5.42L39.22 5.42L39.22 5.42Q39.36 5.38 39.46 5.45L39.46 5.45L39.46 5.45Q39.51 5.50 39.51 5.57L39.51 5.57L39.51 5.57Q39.52 5.67 39.52 5.82L39.52 5.82L39.52 5.82Q39.51 5.97 39.50 6.17L39.50 6.17L39.50 6.17Q39.50 6.34 39.49 6.51L39.49 6.51L39.49 6.51Q39.48 6.68 39.48 6.84L39.48 6.84L39.48 6.84Q39.48 7.05 39.46 7.24L39.46 7.24L39.46 7.24Q39.45 7.44 39.45 7.64L39.45 7.64L39.45 7.64Q39.45 8.02 39.57 8.50L39.57 8.50L39.57 8.50Q39.59 8.56 39.60 8.61L39.60 8.61L39.60 8.61Q39.62 8.66 39.63 8.72L39.63 8.72L39.63 8.72Q39.74 9.04 39.95 9.16L39.95 9.16L39.95 9.16Q40.11 9.26 40.54 9.28L40.54 9.28L40.54 9.28Q40.59 9.29 40.65 9.30L40.65 9.30L40.65 9.30Q40.70 9.31 40.76 9.31L40.76 9.31L40.77 9.31L40.78 9.31L40.78 9.31Q41.10 9.31 41.35 9.19L41.35 9.19L41.35 9.19Q41.60 9.08 41.77 8.79L41.77 8.79L41.77 8.79Q41.90 8.56 41.90 8.08L41.90 8.08L41.90 8.08Q41.90 7.99 41.90 7.93L41.90 7.93L41.90 7.93Q41.90 7.86 41.91 7.82L41.91 7.82L41.91 7.82Q41.98 7.21 41.90 6.55L41.90 6.55L41.90 6.55Q41.88 6.46 41.92 6.22L41.92 6.22L41.92 6.22Q41.93 6.13 41.94 6.05L41.94 6.05L41.94 6.05Q41.95 5.97 41.95 5.92L41.95 5.92L41.95 5.92Q41.95 5.63 41.99 5.52L41.99 5.52L41.99 5.52Q42.04 5.42 42.18 5.42ZM47.22 9.08L47.22 9.08L47.22 9.08Q47.10 9.23 46.99 9.34L46.99 9.34L46.99 9.34Q46.89 9.45 46.77 9.53L46.77 9.53L46.77 9.53Q46.66 9.60 46.52 9.66L46.52 9.66L46.52 9.66Q46.38 9.71 46.20 9.73L46.20 9.73L46.20 9.73Q46.11 9.74 46.01 9.74L46.01 9.74L46.01 9.74Q45.92 9.75 45.81 9.73L45.81 9.73L45.81 9.73Q45.66 9.72 45.51 9.72L45.51 9.72L45.51 9.72Q45.37 9.72 45.22 9.69L45.22 9.69L45.22 9.69Q44.89 9.61 44.67 9.46L44.67 9.46L44.67 9.46Q44.45 9.31 44.34 9.07L44.34 9.07L44.34 9.07Q44.19 8.74 44.51 8.73L44.51 8.73L44.51 8.73Q44.56 8.73 44.64 8.81L44.64 8.81L44.64 8.81Q44.71 8.89 44.75 8.93L44.75 8.93L44.75 8.93Q44.89 9.07 44.91 9.08L44.91 9.08L44.92 9.08L44.92 9.09L44.92 9.09Q45.25 9.32 45.81 9.32L45.81 9.32L45.81 9.32L45.82 9.32L45.82 9.32Q46.05 9.32 46.42 9.23L46.42 9.23L46.42 9.23Q46.77 9.14 46.89 8.87L46.89 8.87L46.89 8.87Q46.95 8.70 46.89 8.51L46.89 8.51L46.89 8.50L46.89 8.50Q46.72 8.14 46.22 8.02L46.22 8.02L45.38 7.80L45.38 7.80Q45.21 7.76 44.95 7.63L44.95 7.63L44.95 7.63Q44.82 7.56 44.73 7.51L44.73 7.51L44.73 7.51Q44.63 7.45 44.57 7.40L44.57 7.40L44.57 7.40Q44.29 7.19 44.24 6.99L44.24 6.99L44.24 6.99Q44.24 6.95 44.24 6.89L44.24 6.89L44.24 6.89Q44.24 6.83 44.24 6.74L44.24 6.74L44.24 6.74Q44.24 6.64 44.25 6.55L44.25 6.55L44.25 6.55Q44.26 6.46 44.28 6.36L44.28 6.36L44.28 6.36Q44.32 6.04 44.54 5.80L44.54 5.80L44.54 5.80Q44.65 5.69 44.79 5.62L44.79 5.62L44.79 5.62Q44.94 5.55 45.08 5.49L45.08 5.49L45.08 5.49Q45.27 5.40 45.48 5.40L45.48 5.40L45.48 5.40Q45.68 5.39 45.89 5.40L45.89 5.40L45.89 5.40Q46.56 5.42 46.94 5.87L46.94 5.87L46.94 5.87Q47.11 6.08 47.07 6.22L47.07 6.22L47.02 6.26L47.02 6.26Q46.91 6.32 46.76 6.19L46.76 6.19L46.76 6.19Q46.72 6.16 46.68 6.13L46.68 6.13L46.68 6.13Q46.65 6.09 46.61 6.06L46.61 6.06L46.61 6.06Q46.58 6.02 46.53 5.98L46.53 5.98L46.53 5.98Q46.47 5.95 46.40 5.91L46.40 5.91L46.39 5.90L46.37 5.90L46.37 5.90Q46.12 5.82 45.85 5.81L45.85 5.81L45.85 5.81Q45.59 5.80 45.31 5.86L45.31 5.86L45.31 5.86Q44.97 5.93 44.80 6.14L44.80 6.14L44.80 6.14Q44.62 6.34 44.62 6.67L44.62 6.67L44.62 6.69L44.63 6.70L44.63 6.70Q44.65 7.12 45.28 7.30L45.28 7.30L45.48 7.36L45.99 7.53L45.99 7.53Q46.10 7.57 46.22 7.62L46.22 7.62L46.22 7.62Q46.33 7.67 46.46 7.72L46.46 7.72L46.46 7.72Q46.66 7.81 46.82 7.90L46.82 7.90L46.82 7.90Q46.98 7.98 47.12 8.07L47.12 8.07L47.12 8.07Q47.22 8.13 47.27 8.22L47.27 8.22L47.27 8.22Q47.32 8.31 47.34 8.41L47.34 8.41L47.34 8.41Q47.35 8.51 47.35 8.62L47.35 8.62L47.35 8.62Q47.35 8.73 47.33 8.82L47.33 8.82L47.33 8.82Q47.31 8.89 47.28 8.96L47.28 8.96L47.28 8.96Q47.25 9.03 47.22 9.08Z"></path></g><!----><!----></svg>